<svg width="24" height="24" viewBox="0 0 24 24" fill="none" xmlns="http://www.w3.org/2000/svg">
<rect width="24" height="24" rx="4" fill="#2C3145"/>
<path d="M9.55 14.9467L17.9174 6.57935C18.1453 6.35145 18.4157 6.2375 18.7285 6.2375C19.0414 6.2375 19.3118 6.35145 19.5397 6.57935C19.7676 6.80725 19.8815 7.07764 19.8815 7.3905C19.8815 7.70335 19.7676 7.97373 19.5397 8.20163L10.3516 17.3897C10.1237 17.6176 9.85651 17.7315 9.55 17.7315C9.24348 17.7315 8.97627 17.6176 8.74837 17.3897L4.46032 13.1016C4.23242 12.8737 4.12164 12.6034 4.12797 12.2905C4.13432 11.9776 4.25145 11.7073 4.47935 11.4794C4.70725 11.2515 4.97763 11.1375 5.2905 11.1375C5.60335 11.1375 5.87372 11.2515 6.10162 11.4794L9.55 14.9467Z" fill="#3F71E5"/>
</svg>
